<svg width="32" height="32" viewBox="0 0 32 32" fill="none" xmlns="http://www.w3.org/2000/svg">
<rect width="32" height="32" rx="16" fill="#059669"/>
<path d="M7.5 10V10.75C7.5 10.9489 7.42098 11.1397 7.28033 11.2803C7.13968 11.421 6.94891 11.5 6.75 11.5H6M6 11.5V11.125C6 10.504 6.504 10 7.125 10H24M6 11.5V20.5M24 10V10.75C24 11.164 24.336 11.5 24.75 11.5H25.5M24 10H24.375C24.996 10 25.5 10.504 25.5 11.125V20.875C25.5 21.496 24.996 22 24.375 22H24M6 20.5V20.875C6 21.1734 6.11853 21.4595 6.3295 21.6705C6.54048 21.8815 6.82663 22 7.125 22H7.5M6 20.5H6.75C6.94891 20.5 7.13968 20.579 7.28033 20.7197C7.42098 20.8603 7.5 21.0511 7.5 21.25V22M24 22V21.25C24 21.0511 24.079 20.8603 24.2197 20.7197C24.3603 20.579 24.5511 20.5 24.75 20.5H25.5M24 22H7.5M18.75 16C18.75 16.7956 18.4339 17.5587 17.8713 18.1213C17.3087 18.6839 16.5456 19 15.75 19C14.9544 19 14.1913 18.6839 13.6287 18.1213C13.0661 17.5587 12.75 16.7956 12.75 16C12.75 15.2044 13.0661 14.4413 13.6287 13.8787C14.1913 13.3161 14.9544 13 15.75 13C16.5456 13 17.3087 13.3161 17.8713 13.8787C18.4339 14.4413 18.75 15.2044 18.75 16ZM21.75 16H21.758V16.008H21.75V16ZM9.75 16H9.758V16.008H9.75V16Z" stroke="white" stroke-width="1.5" stroke-linecap="round" stroke-linejoin="round"/>
</svg>
